<?xml version="1.0" standalone="no"?>
<!DOCTYPE svg PUBLIC "-//W3C//DTD SVG 20010904//EN"
 "http://www.w3.org/TR/2001/REC-SVG-20010904/DTD/svg10.dtd">
<svg version="1.0" xmlns="http://www.w3.org/2000/svg"
 width="142.000000pt" height="142.000000pt" viewBox="0 0 142.000000 142.000000"
 preserveAspectRatio="xMidYMid meet">
<metadata>
Created by potrace 1.14, written by Peter Selinger 2001-2017
</metadata>
<g transform="translate(0.000000,142.000000) scale(0.100000,-0.100000)"
fill="#000000" stroke="none">
<path d="M549 1388 c13 -21 29 -33 43 -34 42 -1 66 -14 72 -40 8 -30 -17 -87
-50 -113 -41 -33 -30 -46 36 -43 76 4 137 85 127 170 -3 25 -12 51 -21 57 -9
7 -16 17 -16 24 0 7 -33 11 -106 11 l-106 0 21 -32z"/>
<path d="M265 1143 c-85 -91 -107 -122 -88 -124 94 -9 175 -59 189 -116 15
-59 9 -139 -21 -272 -20 -88 -15 -148 19 -206 32 -54 74 -87 208 -163 149 -85
217 -132 284 -200 l59 -59 42 46 43 46 -54 51 c-35 34 -76 60 -122 78 -232 94
-323 161 -340 251 -12 65 -11 161 6 310 7 67 10 134 6 150 -14 55 -68 91 -195
131 -10 3 6 26 50 70 l64 65 -24 20 c-13 10 -26 19 -30 19 -3 0 -46 -44 -96
-97z"/>
<path d="M753 1177 c-19 -6 -35 -19 -39 -31 -4 -11 -7 -90 -7 -174 1 -118 4
-157 15 -168 19 -19 97 -32 134 -22 39 10 53 26 58 67 3 30 2 31 -36 31 -39 0
-40 -1 -36 -30 5 -31 3 -32 -32 -32 -11 0 -24 0 -28 1 -5 1 -9 74 -10 164 l-2
163 33 -1 c27 -1 33 -5 37 -30 5 -27 9 -30 40 -30 36 0 35 0 31 50 -3 37 -94
61 -158 42z"/>
<path d="M984 1182 c-11 -8 -13 -401 -2 -403 5 -1 17 -1 28 -1 11 0 24 0 28 1
5 1 8 66 8 145 -1 79 2 142 6 140 4 -3 18 -27 30 -54 13 -28 26 -50 29 -50 4
0 19 25 35 55 16 30 31 55 34 55 3 0 5 -165 5 -368 0 -202 2 -377 4 -389 2
-18 10 -23 32 -23 l29 0 -2 448 -3 447 -30 0 c-26 0 -34 -8 -66 -63 l-37 -64
-34 64 c-26 50 -38 63 -59 65 -14 1 -30 -2 -35 -5z"/>
<path d="M712 483 l3 -197 25 0 c24 -1 25 2 30 88 l5 89 44 3 c72 5 71 4 71
103 0 108 -3 111 -110 111 l-70 0 2 -197z m118 89 l0 -68 -30 0 -30 0 0 68 0
68 30 0 30 0 0 -68z"/>
<path d="M973 665 c-22 -16 -23 -22 -23 -180 0 -158 1 -164 22 -179 29 -20
107 -20 136 0 15 10 22 25 22 49 0 31 -3 34 -27 32 -22 -2 -29 -8 -31 -30 -2
-15 -6 -27 -10 -28 -4 0 -17 -2 -29 -5 -27 -5 -25 -19 -27 173 l-1 143 33 0
c29 0 32 -3 32 -30 0 -27 3 -30 30 -30 27 0 30 3 30 34 0 18 -7 39 -16 47 -25
20 -115 23 -141 4z"/>
</g>
</svg>
